/* XPM */
static const char * calendar_xpm[] = {
"16 16 79 1",
" 	c None",
".	c #898D88",
"+	c #898B86",
"@	c #8B8D89",
"#	c #945D04",
"$	c #8F5A02",
"%	c #8E5902",
"&	c #878984",
"*	c #BFC0BB",
"=	c #D8D9D7",
"-	c #945D05",
";	c #D9AC65",
">	c #DEB36F",
",	c #A5A7A3",
"'	c #E6E8E5",
")	c #A9AAA7",
"!	c #DFB370",
"~	c #DFB470",
"{	c #F8F8F8",
"]	c #E0B571",
"^	c #DCB069",
"/	c #555753",
"(	c #D3D5D2",
"_	c #989A95",
":	c #D4D6D3",
"<	c #E0B671",
"[	c #DEB26E",
"}	c #FFFFFF",
"|	c #C1C2BF",
"1	c #91938F",
"2	c #C2C3C0",
"3	c #E1B671",
"4	c #F5F5F5",
"5	c #FDFDFD",
"6	c #E6E6E6",
"7	c #DEB26D",
"8	c #808080",
"9	c #686868",
"0	c #5C5C5C",
"a	c #989898",
"b	c #DEB26C",
"c	c #CFCFCF",
"d	c #3F3F3F",
"e	c #E2B671",
"f	c #DFB36C",
"g	c #6A6A6A",
"h	c #282828",
"i	c #A1A1A1",
"j	c #E2B570",
"k	c #E0E0E0",
"l	c #2B2B2B",
"m	c #959691",
"n	c #888A85",
"o	c #646661",
"p	c #E2B670",
"q	c #616161",
"r	c #656565",
"s	c #636363",
"t	c #8F8F8F",
"u	c #EEEEED",
"v	c #979893",
"w	c #646662",
"x	c #E3B670",
"y	c #D3D7CF",
"z	c #DFB26B",
"A	c #E4B76F",
"B	c #DBAD64",
"C	c #E0B36B",
"D	c #E1B46C",
"E	c #E1B36C",
"F	c #E1B46D",
"G	c #E2B56D",
"H	c #E2B46D",
"I	c #E2B66E",
"J	c #E3B56F",
"K	c #E3B66F",
"L	c #E4B66F",
"M	c #DFB169",
"N	c #945F05",
"    .+@  .+@    ",
"#$%%&*&%%&=&%%$-",
"$;>>,')!~,{)]]^$",
"%>//&(_//&:_//<%",
"%[/}|12}}|1|}/3%",
"%[/}45466454}/3%",
"%7/}66890a66}/3%",
"%b/}6666cd66}/e%",
"%f/}666ghi66}/j%",
"%f/}6666kl6mnop%",
"%f/}66qrst6&u/p%",
"%f/}}}}}}}}vnwx%",
"%f/yyyyyyyyyy/x%",
"%z////////////A%",
"$BCDEFFGHGIJKLM$",
"-$%%%%%%%%%%%%$N"};
